M48
;Layer_Color=9474304
;FILE_FORMAT=4:4
METRIC,LZ
;TYPE=PLATED
T01F00S00C0.1500
T02F00S00C0.3000
T03F00S00C0.7000
T04F00S00C2.4000
;TYPE=NON_PLATED
T05F00S00C1.1000
T06F00S00C1.6000
T07F00S00C3.7000
%
T01
X00065728Y00008481
X00037Y00061
X00030565Y00061003
X00024Y00061
Y00068
X00030514Y0006798
X00037Y00068
X000448Y00103345
X0005925Y001085
X00071Y00142
X0007075Y00154
X000755Y00174
X00076042Y00192241
X00064Y00193
X00049
X00056Y00169
X00041Y00168
X00007626Y00163134
X00005943Y00157856
X00007725Y00152611
X0000525Y0014675
X0000725Y001425
X0000525Y0013825
X0000757Y00132517
X00083922Y0013295
X00088025Y00129227
X00080188Y00137092
X000955Y0018475
X00097348Y00202828
X00112Y00204
Y00199
Y00194
X0012Y00183
X00133Y00213
X0015875Y0021125
X001645
Y00217
X0015875
Y0022275
X0016425Y002225
X00169181Y00182984
X00172Y00164
X00175189Y0015947
X001806Y00158279
X00186089Y00157536
X0018483Y00151084
X00191797Y00155465
X00197026Y00157293
X00203997Y00141219
X00203648Y00127698
X0021175Y001275
X0021589Y0011917
X00219081Y00114642
X002125Y001145
X0019775Y001105
Y0010325
X001795Y0010225
X0017325
X0017Y0012075
Y0013925
X00163Y00167
X00215891Y00169861
X00218916Y00174502
X00225207Y00175006
X00228658Y00181385
X00235101Y00187899
X00242932Y00184981
X0024Y00179
X00236Y00174
X002507Y00174926
X00255Y00186441
X0025225Y0019125
X00253Y00199
X00243Y00202
X00242801Y00207888
X00244771Y00216827
X0026331Y00217506
X00270337Y00192748
X00273654Y0018575
X002668Y00185672
X002707Y00177771
X002785Y0017575
X00293904Y00178746
X00290568Y00192608
X00297257Y00200039
X00312Y00202
Y00209
Y00217
X00313Y00225
X00321Y00227
Y00234
Y00241
Y00248
Y00255
Y00262
Y00269
X00316Y00274
X00371Y00269
Y00262
Y00255
Y00248
Y00241
Y00234
Y00227
Y0022
X00364Y00217
X00357
X0035
Y00209
Y00201
X00346Y00192
X00338
X00326Y00193
X00312Y00192
X00317231Y00176231
X00312664Y0016958
X00332937Y00163867
X00350695Y0016327
X00356718Y00162729
X00362258Y00162777
X0035875Y0016925
X00372141Y00174318
X00371492Y0017982
X00381304Y0018172
X00381852Y00176207
X0038185Y00170667
X00381838Y00165127
X00381678Y0015959
X00380444Y00154189
X00377754Y00149346
X00373882Y00145384
X00369116Y00142559
X00364697Y00139217
X00359166Y00138902
X00353759Y00140107
X00355001Y001312
X00355Y00126
X00349
Y001312
X00342Y0013
X003395Y00136
X0033425Y0013925
X00317022Y0013771
X00311814Y00135822
X00306554Y001337
X0030652Y00128055
X00300987Y00128346
X00315586Y0013011
X00326Y001205
X0031725Y001102
X0031525Y00102
X003105Y0009725
X0030575Y000925
X00301Y0008775
X00313Y0008525
X0031775Y0008975
X0032225Y0009425
X0030825Y000805
X00278924Y00080289
X002795Y00074779
X002783Y000945
X002845
X002705
X00254Y00088
X00250651Y0007925
X00244Y0007925
X00237336Y0007925
X00230453
X00224019Y00073981
X00233843Y00070845
X00240594
X00247154Y00070922
X00254212Y00070999
X00265Y000565
X00242897Y00089444
X00236852Y00094148
X00223394Y00096606
X00221011Y000926
X002097Y00078
X00204644Y00077856
X0019825Y00071
X001885Y0008075
X00118Y0009
Y00097
X00247Y001175
X00252Y001225
X00262
X00257Y001175
Y001275
X00252Y001325
X00262
X00257Y001375
X00262Y001425
X00252
X00247187Y00147313
X00247Y001375
Y001275
X00267
X00272Y001325
X00267Y001375
Y001475
X00272Y001425
X00277Y001475
Y001375
Y001275
Y001175
X00267
X00272Y001225
X00257Y001475
X00235Y00157
X00207Y0018
X00216995Y00194929
X00223133Y00196873
X00222813Y00203503
X00221865Y00211374
X00222637Y00216411
X00216741Y00216888
X0010275Y00256
X00071283Y00268501
X00377Y00273
X00388467Y00238963
X00388496Y00234202
X00394094Y00234144
X00394152Y00238934
X00378637Y00186576
X00374059Y00189696
X00368578Y001905
X00362599Y00190336
X0035875Y00189
X0034575Y001785
X00383Y00135
Y00115
X0038275Y001078
Y001002
Y0009425
Y0008775
X0038475Y00055
X00294697Y00101924
X00414Y00102
X00407758Y00063707
X00455616Y00063654
X0046025Y000675
X00459Y000905
X0045925Y00119
X00456Y00124
X0045925Y00144
X0046025Y001525
Y001675
X00446Y00164
X00419
X00421Y00154
X00426Y0015
X00407Y00158
Y0017
X00415Y00175
X00413Y00185
X0046975Y001855
X00483Y0019
X00488
Y00195
X00488008Y00199921
X00488092Y00204904
X00483Y00205
Y002
Y00195
X0048897Y00213276
X004995Y00216
X0050175Y0022225
X0049525Y00221
X004925Y00228
X00515Y00221
X00520555Y00220921
X00526Y00221
X00532493Y00229
X00536Y00234
X0047775Y002435
X00399836Y00238991
Y00234057
X00483Y00158
Y00153
Y00148
X00488894Y00148115
X00489Y00153
Y00158
X005075Y0015575
X00494Y0014
X005Y00126
X00497834Y00118
X00503Y00116
X00504Y0011
X00504278Y00104278
X00503Y00096678
X00501842Y0009126
X005Y00086
X00531772Y00094076
X00532Y00105
X00534976Y00119228
X00531708Y00133273
X00514Y00132
X0047725Y0003625
T02
X0009Y0005
X001
X0011
X0007Y0009
X0006
X00075Y0022
X00095Y0024
X0009Y0025
X00095Y0026
X00305
X003Y0025
X0031
X00305Y0024
X003Y0023
X0036Y0021
X0037
X00375Y002
X00365
X00385Y0026
X00375Y0008
X00365
X00355
X00345
X00335
X00325
X0038Y0003
X0039
X004
X005Y0007
X00525Y0008
X0052Y0009
X0044Y0019
X00435Y002
X00425
X00455Y0026
X00465
X00475
T03
X003913Y00015
X00404
X004167
X004476Y00014872
X004603
X00473
T04
X000324Y000301
Y002501
X005124
Y000301
T05
X00417Y0024
T06
X00417Y0004
T07
X001345Y0014
M30
